<?xml version="1.0" encoding="UTF-8" standalone="no"?>
<svg
   height="100%"
   style="fill-rule:evenodd;clip-rule:evenodd;stroke-linejoin:round;stroke-miterlimit:2;"
   version="1.1"
   viewBox="0 0 512 512"
   width="100%"
   xml:space="preserve"
   id="svg18517"
   sodipodi:docname="icon_k0dr.svg"
   inkscape:version="1.2 (dc2aeda, 2022-05-15)"
   xmlns:inkscape="http://www.inkscape.org/namespaces/inkscape"
   xmlns:sodipodi="http://sodipodi.sourceforge.net/DTD/sodipodi-0.dtd"
   xmlns="http://www.w3.org/2000/svg"
   xmlns:svg="http://www.w3.org/2000/svg"><defs
     id="defs18521" /><sodipodi:namedview
     id="namedview18519"
     pagecolor="#ffffff"
     bordercolor="#666666"
     borderopacity="1.0"
     inkscape:showpageshadow="2"
     inkscape:pageopacity="0.0"
     inkscape:pagecheckerboard="0"
     inkscape:deskcolor="#d1d1d1"
     showgrid="false"
     inkscape:zoom="1.4765625"
     inkscape:cx="256"
     inkscape:cy="256.33862"
     inkscape:window-width="1200"
     inkscape:window-height="1205"
     inkscape:window-x="0"
     inkscape:window-y="25"
     inkscape:window-maximized="0"
     inkscape:current-layer="svg18517" /><path
     id="path18515"
     style="fill:#ffffff"
     d="M 62.554688 0 C 28.029756 0 0 28.030756 0 62.554688 L 0 449.44531 C 0 483.96925 28.030756 512 62.554688 512 L 449.44531 512 C 483.96925 512 512 483.96925 512 449.44531 L 512 62.554688 C 512 28.030756 483.97025 0 449.44531 0 L 62.554688 0 z M 379.83203 60.683594 C 391.88455 60.552762 404.66247 66.762519 398.93555 76.552734 C 379.35728 89.439866 360.65685 103.79258 343.36133 119.66602 C 354.10645 129.45046 360.63129 143.3781 357.81445 158.55664 C 363.88246 208.16817 305.60935 275.76256 264.84375 324.13867 C 236.84625 354.74892 206.06159 384.06903 165.16992 391.60938 C 160.29307 392.67816 155.55224 393.03084 151.03125 392.69727 C 144.52403 405.91328 138.73614 419.37105 134.13281 433.45312 C 125.26847 453.71327 122.34766 451.2207 122.34766 451.2207 C 122.37543 436.36418 131.46165 409.65969 138.62891 389.79297 C 124.66716 384.00965 114.44108 370.00411 111.72461 348.39844 C 109.76326 285.57399 148.39668 228.75278 189.35156 190.51172 C 190.82726 191.00629 222.93819 169.83298 223.73047 172.08594 C 200.7657 195.81396 176.40877 218.83691 159.89844 247.8457 C 140.29462 280.40578 129.22654 313.85951 131.89648 352.15625 C 132.30357 361.90424 138.40414 368.11074 146.61328 371.21875 C 183.04087 295.08891 198.7342 274.07239 235.79492 217.15039 C 244.44015 204.73577 283.30979 157.98413 316.56836 119.41992 C 314.03255 118.74975 311.27889 118.43927 308.28711 118.57812 C 274.63045 116.83177 243.59147 135.59916 220.82617 158.94922 C 199.84112 172.83118 231.0243 142.4792 238.53125 137.02148 C 259.52225 119.31097 285.17728 99.585378 314.47266 105.91016 C 318.28774 106.44678 322.07042 107.44348 325.72461 108.83398 C 343.29748 88.638993 358.19039 72.08775 364.25391 66.505859 C 367.4047 62.561219 373.5188 60.752134 379.83203 60.683594 z M 331.64062 130.87305 C 322.22591 140.26659 313.30104 150.15308 304.96875 160.54883 C 277.02451 191.27293 252.65264 224.88507 229.16797 259.01367 L 198.59961 307.08398 C 186.02387 330.2542 172.79629 351.84551 160.96484 373.60352 C 169.33855 373.5346 177.88106 371.21242 184.10352 366.91211 C 213.88203 350.26548 235.96389 322.80643 258.56055 298.32812 C 292.37527 256.76303 324.93797 214.89345 337.97266 160.66602 C 338.88874 149.9893 336.80764 138.96689 331.64062 130.87305 z " /></svg>
