<?xml version="1.0" encoding="UTF-8" standalone="no"?>
<svg
   data-name="Layer 1"
   id="Layer_1"
   viewBox="0 0 128 128"
   version="1.1"
   sodipodi:docname="icon_youtube.svg"
   inkscape:version="1.2 (dc2aeda, 2022-05-15)"
   xmlns:inkscape="http://www.inkscape.org/namespaces/inkscape"
   xmlns:sodipodi="http://sodipodi.sourceforge.net/DTD/sodipodi-0.dtd"
   xmlns="http://www.w3.org/2000/svg"
   xmlns:svg="http://www.w3.org/2000/svg">
  <defs
     id="defs18540" />
  <sodipodi:namedview
     id="namedview18538"
     pagecolor="#ffffff"
     bordercolor="#666666"
     borderopacity="1.0"
     inkscape:showpageshadow="2"
     inkscape:pageopacity="0.0"
     inkscape:pagecheckerboard="0"
     inkscape:deskcolor="#d1d1d1"
     showgrid="false"
     inkscape:zoom="5.90625"
     inkscape:cx="64"
     inkscape:cy="63.915344"
     inkscape:window-width="1200"
     inkscape:window-height="1205"
     inkscape:window-x="0"
     inkscape:window-y="157"
     inkscape:window-maximized="0"
     inkscape:current-layer="Layer_1" />
  <title
     id="title18531" />
  <polygon
     points="57 73 76 63 57 53 57 73"
     id="polygon18533"
     style="fill:#ffffff" />
  <path
     d="M104,0H24A24.07,24.07,0,0,0,0,24v80a24.07,24.07,0,0,0,24,24h80a24.07,24.07,0,0,0,24-24V24A24.07,24.07,0,0,0,104,0ZM98.62,74.08c-.49,6.75-1.72,13.72-10.35,14.23a426.5,426.5,0,0,1-48.55,0c-8.63-.5-9.86-7.48-10.35-14.23a134.94,134.94,0,0,1,0-20.16c.49-6.75,1.72-13.72,10.35-14.23a426.5,426.5,0,0,1,48.55,0c8.63.5,9.86,7.48,10.35,14.23A135,135,0,0,1,98.62,74.08Z"
     id="path18535"
     style="fill:#ffffff" />
</svg>
