<?xml version="1.0" encoding="UTF-8" standalone="no"?>
<svg
   xmlns:dc="http://purl.org/dc/elements/1.1/"
   xmlns:cc="http://creativecommons.org/ns#"
   xmlns:rdf="http://www.w3.org/1999/02/22-rdf-syntax-ns#"
   xmlns:svg="http://www.w3.org/2000/svg"
   xmlns="http://www.w3.org/2000/svg"
   xmlns:sodipodi="http://sodipodi.sourceforge.net/DTD/sodipodi-0.dtd"
   xmlns:inkscape="http://www.inkscape.org/namespaces/inkscape"
   width="3.3956506in"
   height="5.2588205in"
   viewBox="0 0 305.60855 473.29384"
   id="svg3343"
   version="1.1"
   inkscape:version="1.0.1 (c497b03c, 2020-09-10)"
   sodipodi:docname="k0dr_logo.svg"
   inkscape:export-filename="/Users/michael/Dropbox (Personal)/projects/k0dr/assets/k0dr_logo.png"
   inkscape:export-xdpi="96"
   inkscape:export-ydpi="96">
  <defs
     id="defs3345" />
  <sodipodi:namedview
     id="base"
     pagecolor="#ffffff"
     bordercolor="#666666"
     borderopacity="1.0"
     inkscape:pageopacity="0.0"
     inkscape:pageshadow="2"
     inkscape:zoom="0.7"
     inkscape:cx="169.65553"
     inkscape:cy="312.73108"
     inkscape:document-units="px"
     inkscape:current-layer="text3501"
     showgrid="false"
     showguides="true"
     inkscape:guide-bbox="true"
     inkscape:window-width="1680"
     inkscape:window-height="997"
     inkscape:window-x="0"
     inkscape:window-y="25"
     inkscape:window-maximized="1"
     fit-margin-top="0"
     fit-margin-left="0"
     fit-margin-right="0"
     fit-margin-bottom="0"
     units="in"
     inkscape:document-rotation="0" />
  <metadata
     id="metadata3348">
    <rdf:RDF>
      <cc:Work
         rdf:about="">
        <dc:format>image/svg+xml</dc:format>
        <dc:type
           rdf:resource="http://purl.org/dc/dcmitype/StillImage" />
        <dc:title />
      </cc:Work>
    </rdf:RDF>
  </metadata>
  <g
     inkscape:groupmode="layer"
     id="layer2"
     inkscape:label="Layer 2"
     style="display:inline"
     transform="translate(-339.45111,-238.01636)">
    <rect
       ry="0"
       y="240.01636"
       x="341.45111"
       height="469.29385"
       width="301.60855"
       id="rect3486"
       style="display:inline;fill:#ffffff;fill-opacity:1;stroke:#000000;stroke-width:4;stroke-miterlimit:4;stroke-dasharray:none;stroke-opacity:1" />
  </g>
  <g
     inkscape:label="Layer 1"
     inkscape:groupmode="layer"
     id="layer1"
     style="display:inline"
     transform="translate(-339.45111,-238.01636)">
    <g
       id="g859"
       transform="translate(-0.505091)">
      <g
         id="g3538"
         transform="translate(120.20815,-66.670068)">
        <g
           transform="matrix(2.345542,-0.09992772,0.09992772,2.345542,90.073903,285.98724)"
           id="g4291">
          <g
             id="g32"
             transform="matrix(1.25,0,0,-1.25,100.2021,95.270492)">
            <path
               style="fill:#1b75bc;fill-opacity:1;fill-rule:evenodd;stroke:none"
               d="M -0.40929399,0 C -6.3879169,-11.015334 -12.965665,-20.610159 -16.609261,-31.756345 c -2.227585,-5.091315 -2.961476,-4.464887 -2.961476,-4.464887 0.0079,4.236874 2.94947,12.315096 4.788418,17.356106 C -4.6617253,2.5789713 -0.81212773,7.6247768 8.9377605,22.59975 12.511159,27.73118 36.672029,56.27034 41.219088,60.456237 c 2.30339,2.883713 10.908543,1.22399 8.71554,-2.524967 C 41.094237,52.112206 32.961879,45.108893 26.321082,36.823527 19.298765,29.102646 13.174276,20.655967 7.2726563,12.079543"
               id="path34"
               inkscape:connector-curvature="0"
               sodipodi:nodetypes="ccccccccc" />
          </g>
          <g
             id="g76"
             transform="matrix(1.25,0,0,-1.25,110.85554,102.52192)" />
        </g>
      </g>
      <path
         style="display:inline;fill:#1b75bc;fill-opacity:1;fill-rule:evenodd;stroke:none"
         d="m 443.15818,347.21816 c 1.10279,0.31808 24.09664,-16.28888 24.75108,-14.6538 -16.17529,18.20331 -33.39814,35.93048 -44.65214,57.82198 -13.42176,24.60513 -20.52637,49.59979 -17.35708,77.73246 1.46527,17.33724 26.78729,18.41076 38.92779,9.23307 21.41785,-13.19972 36.82612,-34.12335 52.70664,-52.86788 23.60949,-31.68598 46.28708,-63.55725 54.18865,-103.92038 0.66442,-15.4363 -7.13429,-31.51067 -23.19397,-30.07822 -24.85252,-0.23024 -47.13148,14.57139 -63.17169,32.48996 -15.02574,10.88674 6.99615,-12.45398 12.35585,-16.71079 14.90993,-13.70774 33.1929,-29.0468 54.97581,-25.30637 18.3693,1.79046 36.37519,17.77128 33.58678,37.42789 6.02811,36.36257 -34.78426,87.99444 -63.30125,124.91686 -19.6673,23.432 -41.42903,46.00073 -71.32071,52.8399 -19.40038,5.12812 -36.54122,-5.38782 -40.73361,-30.15983 -3.41712,-46.22655 23.26327,-89.30384 52.23785,-118.76485 z"
         id="path78"
         inkscape:connector-curvature="0"
         sodipodi:nodetypes="cccccccccccccccc" />
    </g>
    <g
       transform="matrix(0.97408079,0,0,1,206.62315,690.52733)"
       id="text3400"
       style="font-style:normal;font-weight:normal;font-size:40px;line-height:125%;font-family:sans-serif;letter-spacing:0px;word-spacing:0px;display:inline;fill:#000000;fill-opacity:1;stroke:none;stroke-width:1px;stroke-linecap:butt;stroke-linejoin:miter;stroke-opacity:1">
      <path
         inkscape:connector-curvature="0"
         id="path3478"
         style="font-style:normal;font-variant:normal;font-weight:normal;font-stretch:normal;font-size:180px;font-family:'Share Tech Mono';-inkscape-font-specification:'Share Tech Mono'"
         d="m 164.52572,-63.0778 v 46.44 h -15.66 v -126 h 15.66 v 54.36 l 34.2,-54.36 h 17.1 l -34.74,55.62 36.9,70.38 h -18 l -28.62,-56.7 z" />
      <path
         inkscape:connector-curvature="0"
         id="path3480"
         style="font-style:normal;font-variant:normal;font-weight:normal;font-stretch:normal;font-size:180px;font-family:'Share Tech Mono';-inkscape-font-specification:'Share Tech Mono'"
         d="m 281.98363,-47.2378 q 0,14.94 -8.28,22.86 -8.1,7.74 -21.96,7.74 h -3.6 q -13.86,0 -22.14,-7.74 -8.1,-7.92 -8.1,-22.86 v -64.8 q 0,-15.12 8.1,-22.86 8.1,-7.74 22.14,-7.74 h 3.6 q 14.04,0 22.14,7.74 8.1,7.74 8.1,22.86 z m -15.3,-68.22 q 0,-5.58 -4.32,-9.54 -4.14,-4.14 -10.62,-4.14 h -3.6 q -6.48,0 -10.8,4.14 -4.14,3.96 -4.14,9.54 v 48.78 z m -33.48,71.64 q 0,5.58 4.14,9.72 4.32,3.96 10.8,3.96 h 3.6 q 6.48,0 10.62,-3.96 4.32,-4.14 4.32,-9.72 v -48.6 z" />
      <path
         inkscape:connector-curvature="0"
         id="path3482"
         style="font-style:normal;font-variant:normal;font-weight:normal;font-stretch:normal;font-size:180px;font-family:'Share Tech Mono';-inkscape-font-specification:'Share Tech Mono'"
         d="m 356.62153,-45.0778 q 0,15.48 -7.2,21.96 -7.02,6.48 -23.4,6.48 h -37.08 v -126 h 34.92 q 16.2,0 24.48,6.66 8.28,6.48 8.28,21.42 z m -15.66,-71.1 q 0,-5.94 -3.6,-9.36 -3.6,-3.6 -9.54,-3.6 h -23.22 v 99 h 23.04 q 6.84,0 10.08,-3.06 3.24,-3.24 3.24,-10.08 z" />
      <path
         inkscape:connector-curvature="0"
         id="path3484"
         style="font-style:normal;font-variant:normal;font-weight:normal;font-stretch:normal;font-size:180px;font-family:'Share Tech Mono';-inkscape-font-specification:'Share Tech Mono'"
         d="m 379.63947,-68.8378 v 52.2 h -15.66 v -126 h 33.84 q 15.3,0 23.04,6.84 7.92,6.66 7.92,21.24 v 17.28 q 0,20.34 -16.2,25.38 l 25.02,55.26 h -17.1 l -23.22,-52.2 z m 33.48,-47.34 q 0,-6.84 -3.24,-9.9 -3.06,-3.06 -9.9,-3.06 h -20.34 v 46.8 h 20.34 q 6.84,0 9.9,-3.06 3.24,-3.24 3.24,-10.08 z" />
    </g>
    <g
       aria-label="Open Source Workshop"
       transform="scale(0.98053761,1.0198487)"
       id="text3501"
       style="font-style:normal;font-variant:normal;font-weight:normal;font-stretch:normal;font-size:11.7149px;line-height:0%;font-family:'Arial Narrow';-inkscape-font-specification:'Arial Narrow';letter-spacing:0px;word-spacing:0px;display:inline;fill:#000000;fill-opacity:1;stroke:none;stroke-width:0.976229px;stroke-linecap:butt;stroke-linejoin:miter;stroke-opacity:1">
      <path
         d="m 358.60998,675.38691 q 0,-4.19465 3.07522,-7.20554 3.06236,-3.01089 7.35995,-3.01089 4.24612,0 7.28274,3.03663 3.04949,3.03662 3.04949,7.29561 0,4.28472 -3.06235,7.26988 -3.07523,2.99802 -7.42429,2.99802 -3.84724,0 -6.9096,-2.66348 -3.37116,-2.94655 -3.37116,-7.72023 z m 3.02375,0.0386 q 0,3.29396 2.21313,5.41702 2.20027,2.12306 5.08248,2.12306 3.1267,0 5.27549,-2.16166 2.1488,-2.1874 2.1488,-5.32696 0,-3.17816 -2.12306,-5.32695 -2.1102,-2.16166 -5.22402,-2.16166 -3.10096,0 -5.23689,2.16166 -2.13593,2.13593 -2.13593,5.27549 z"
         style="font-style:normal;font-variant:normal;font-weight:normal;font-stretch:normal;font-size:26.3517px;line-height:1.25;font-family:Futura;-inkscape-font-specification:Futura;stroke-width:0.976229px"
         id="path861" />
      <path
         d="m 385.51496,692.22987 h -2.89509 v -19.35203 h 2.89509 v 1.36391 q 1.71132,-1.71132 3.88585,-1.71132 2.58627,0 4.25899,1.90432 1.69845,1.89146 1.69845,4.77368 0,2.81788 -1.68559,4.69647 -1.67271,1.86572 -4.22039,1.86572 -2.20026,0 -3.93731,-1.76279 z m 6.88387,-13.00858 q 0,-1.80138 -0.9779,-2.93368 -0.99076,-1.14517 -2.49621,-1.14517 -1.59551,0 -2.58627,1.10657 -0.99076,1.10656 -0.99076,2.90795 0,1.76278 0.99076,2.90795 0.97789,1.11943 2.57341,1.11943 1.50544,0 2.48334,-1.1323 1.00363,-1.1323 1.00363,-2.83075 z"
         style="font-style:normal;font-variant:normal;font-weight:normal;font-stretch:normal;font-size:26.3517px;line-height:1.25;font-family:Futura;-inkscape-font-specification:Futura;stroke-width:0.976229px"
         id="path863" />
      <path
         d="m 409.83367,679.82604 h -8.9812 q 0.11581,1.54405 1.00363,2.45761 0.88783,0.90069 2.27747,0.90069 1.08083,0 1.78852,-0.51468 0.69482,-0.51468 1.58264,-1.90432 l 2.44474,1.3639 q -0.56615,0.96503 -1.19663,1.65985 -0.63049,0.68196 -1.35104,1.1323 -0.72056,0.43748 -1.55691,0.64335 -0.83636,0.20588 -1.81426,0.20588 -2.80501,0 -4.50346,-1.80139 -1.69845,-1.81425 -1.69845,-4.81227 0,-2.97229 1.64698,-4.81228 1.65985,-1.81425 4.40053,-1.81425 2.76641,0 4.37479,1.76279 1.59552,1.74991 1.59552,4.85087 z m -2.97229,-2.36753 q -0.60475,-2.31607 -2.92082,-2.31607 -0.52755,0 -0.99076,0.16727 -0.46321,0.15441 -0.84922,0.46322 -0.37315,0.29594 -0.64336,0.72055 -0.2702,0.42461 -0.41174,0.96503 z"
         style="font-style:normal;font-variant:normal;font-weight:normal;font-stretch:normal;font-size:26.3517px;line-height:1.25;font-family:Futura;-inkscape-font-specification:Futura;stroke-width:0.976229px"
         id="path865" />
      <path
         d="m 412.98609,672.87784 h 2.90795 v 1.15804 q 1.51832,-1.50545 3.42264,-1.50545 2.18739,0 3.40976,1.37677 1.0551,1.17091 1.0551,3.82152 v 7.68162 h -2.90795 v -6.99967 q 0,-1.85285 -0.51468,-2.56054 -0.50182,-0.72056 -1.82712,-0.72056 -1.44111,0 -2.04586,0.95216 -0.59189,0.9393 -0.59189,3.2811 v 6.04751 h -2.90795 z"
         style="font-style:normal;font-variant:normal;font-weight:normal;font-stretch:normal;font-size:26.3517px;line-height:1.25;font-family:Futura;-inkscape-font-specification:Futura;stroke-width:0.976229px"
         id="path867" />
      <path
         d="m 447.36682,668.50305 -2.43187,1.44111 q -0.68195,-1.18377 -1.29957,-1.54405 -0.64335,-0.41174 -1.65985,-0.41174 -1.2481,0 -2.07159,0.70768 -0.82349,0.69482 -0.82349,1.74992 0,1.45398 2.16166,2.3418 l 1.98153,0.81063 q 2.419,0.97789 3.53843,2.39327 1.11944,1.4025 1.11944,3.44836 0,2.74068 -1.82712,4.5292 -1.83999,1.80139 -4.5678,1.80139 -2.58628,0 -4.27186,-1.53118 -1.65985,-1.53118 -2.0716,-4.31046 l 3.03663,-0.66909 q 0.20587,1.74992 0.72055,2.41901 0.92643,1.2867 2.70208,1.2867 1.40251,0 2.32893,-0.93929 0.92643,-0.9393 0.92643,-2.3804 0,-0.57902 -0.16727,-1.0551 -0.15441,-0.48895 -0.50182,-0.88783 -0.33454,-0.41174 -0.87495,-0.75915 -0.54042,-0.36028 -1.28671,-0.68196 l -1.91719,-0.79775 q -4.07885,-1.72419 -4.07885,-5.04388 0,-2.23887 1.71132,-3.74431 1.71131,-1.51831 4.25899,-1.51831 3.4355,0 5.36555,3.34543 z"
         style="font-style:normal;font-variant:normal;font-weight:normal;font-stretch:normal;font-size:26.3517px;line-height:1.25;font-family:Futura;-inkscape-font-specification:Futura;stroke-width:0.976229px"
         id="path869" />
      <path
         d="m 450.37771,679.05402 q 0,-2.71494 1.94293,-4.61927 1.94292,-1.90432 4.73507,-1.90432 2.80501,0 4.7608,1.91719 1.93006,1.91719 1.93006,4.70934 0,2.81788 -1.94292,4.7222 -1.95579,1.89146 -4.79941,1.89146 -2.81788,0 -4.7222,-1.93006 -1.90433,-1.90432 -1.90433,-4.78654 z m 2.95942,0.0515 q 0,1.87859 1.00363,2.97229 1.02937,1.10656 2.71495,1.10656 1.69845,0 2.71494,-1.0937 1.0165,-1.0937 1.0165,-2.92082 0,-1.82712 -1.0165,-2.92081 -1.02936,-1.10657 -2.71494,-1.10657 -1.65985,0 -2.68921,1.10657 -1.02937,1.10656 -1.02937,2.85648 z"
         style="font-style:normal;font-variant:normal;font-weight:normal;font-stretch:normal;font-size:26.3517px;line-height:1.25;font-family:Futura;-inkscape-font-specification:Futura;stroke-width:0.976229px"
         id="path871" />
      <path
         d="m 469.71688,672.87784 v 7.19268 q 0,3.11382 2.4576,3.11382 2.45761,0 2.45761,-3.11382 v -7.19268 h 2.89508 v 7.25701 q 0,1.50545 -0.37314,2.59914 -0.36028,0.9779 -1.2481,1.76279 -1.46685,1.27384 -3.73145,1.27384 -2.25173,0 -3.71857,-1.27384 -0.90069,-0.78489 -1.27384,-1.76279 -0.36028,-0.87495 -0.36028,-2.59914 v -7.25701 z"
         style="font-style:normal;font-variant:normal;font-weight:normal;font-stretch:normal;font-size:26.3517px;line-height:1.25;font-family:Futura;-inkscape-font-specification:Futura;stroke-width:0.976229px"
         id="path873" />
      <path
         d="m 481.18141,672.87784 h 2.89508 v 1.11943 q 0.79776,-0.83635 1.41537,-1.14516 0.63049,-0.32168 1.49258,-0.32168 1.14517,0 2.39327,0.74629 l -1.3253,2.65061 q -0.82349,-0.59188 -1.60838,-0.59188 -2.36754,0 -2.36754,3.57703 v 6.49786 h -2.89508 z"
         style="font-style:normal;font-variant:normal;font-weight:normal;font-stretch:normal;font-size:26.3517px;line-height:1.25;font-family:Futura;-inkscape-font-specification:Futura;stroke-width:0.976229px"
         id="path875" />
      <path
         d="m 500.61064,673.41826 v 3.84724 q -0.99076,-1.2095 -1.77565,-1.65985 -0.77202,-0.46321 -1.81425,-0.46321 -1.63412,0 -2.71495,1.14517 -1.08083,1.14516 -1.08083,2.86935 0,1.76278 1.04223,2.89508 1.0551,1.1323 2.68921,1.1323 1.04223,0 1.83999,-0.45035 0.77202,-0.43747 1.81425,-1.69844 v 3.82151 q -1.76278,0.91356 -3.52557,0.91356 -2.90795,0 -4.86374,-1.87859 -1.95579,-1.89146 -1.95579,-4.69647 0,-2.80502 1.98152,-4.73507 1.98153,-1.93006 4.86375,-1.93006 1.85285,0 3.49983,0.88783 z"
         style="font-style:normal;font-variant:normal;font-weight:normal;font-stretch:normal;font-size:26.3517px;line-height:1.25;font-family:Futura;-inkscape-font-specification:Futura;stroke-width:0.976229px"
         id="path877" />
      <path
         d="m 514.82872,679.82604 h -8.9812 q 0.11581,1.54405 1.00363,2.45761 0.88783,0.90069 2.27747,0.90069 1.08083,0 1.78852,-0.51468 0.69482,-0.51468 1.58264,-1.90432 l 2.44474,1.3639 q -0.56615,0.96503 -1.19663,1.65985 -0.63049,0.68196 -1.35104,1.1323 -0.72056,0.43748 -1.55692,0.64335 -0.83635,0.20588 -1.81425,0.20588 -2.80501,0 -4.50346,-1.80139 -1.69845,-1.81425 -1.69845,-4.81227 0,-2.97229 1.64698,-4.81228 1.65985,-1.81425 4.40053,-1.81425 2.76641,0 4.37479,1.76279 1.59551,1.74991 1.59551,4.85087 z m -2.97229,-2.36753 q -0.60475,-2.31607 -2.92082,-2.31607 -0.52755,0 -0.99076,0.16727 -0.46321,0.15441 -0.84922,0.46322 -0.37315,0.29594 -0.64336,0.72055 -0.2702,0.42461 -0.41174,0.96503 z"
         style="font-style:normal;font-variant:normal;font-weight:normal;font-stretch:normal;font-size:26.3517px;line-height:1.25;font-family:Futura;-inkscape-font-specification:Futura;stroke-width:0.976229px"
         id="path879" />
      <path
         d="m 527.64429,665.54363 5.17255,13.27878 5.40416,-14.24381 5.17255,14.24381 5.49423,-13.27878 h 3.25536 l -8.87826,21.12768 -5.10821,-14.07654 -5.32696,14.08941 -8.44078,-21.14055 z"
         style="font-style:normal;font-variant:normal;font-weight:normal;font-stretch:normal;font-size:26.3517px;line-height:1.25;font-family:Futura;-inkscape-font-specification:Futura;stroke-width:0.976229px"
         id="path881" />
      <path
         d="m 551.82146,679.05402 q 0,-2.71494 1.94293,-4.61927 1.94292,-1.90432 4.73507,-1.90432 2.80501,0 4.7608,1.91719 1.93006,1.91719 1.93006,4.70934 0,2.81788 -1.94292,4.7222 -1.95579,1.89146 -4.79941,1.89146 -2.81788,0 -4.7222,-1.93006 -1.90433,-1.90432 -1.90433,-4.78654 z m 2.95942,0.0515 q 0,1.87859 1.00363,2.97229 1.02937,1.10656 2.71495,1.10656 1.69845,0 2.71494,-1.0937 1.0165,-1.0937 1.0165,-2.92082 0,-1.82712 -1.0165,-2.92081 -1.02936,-1.10657 -2.71494,-1.10657 -1.65985,0 -2.68921,1.10657 -1.02937,1.10656 -1.02937,2.85648 z"
         style="font-style:normal;font-variant:normal;font-weight:normal;font-stretch:normal;font-size:26.3517px;line-height:1.25;font-family:Futura;-inkscape-font-specification:Futura;stroke-width:0.976229px"
         id="path883" />
      <path
         d="m 568.26554,672.87784 h 2.89508 v 1.11943 q 0.79776,-0.83635 1.41537,-1.14516 0.63049,-0.32168 1.49258,-0.32168 1.14517,0 2.39327,0.74629 l -1.3253,2.65061 q -0.8235,-0.59188 -1.60838,-0.59188 -2.36754,0 -2.36754,3.57703 v 6.49786 h -2.89508 z"
         style="font-style:normal;font-variant:normal;font-weight:normal;font-stretch:normal;font-size:26.3517px;line-height:1.25;font-family:Futura;-inkscape-font-specification:Futura;stroke-width:0.976229px"
         id="path885" />
      <path
         d="m 581.45426,663.67791 v 13.25305 l 4.07885,-4.05312 h 3.88585 l -5.44276,5.26262 5.84164,7.26988 h -3.75718 l -4.14319,-5.28835 -0.46321,0.46321 v 4.82514 h -2.89508 v -21.73243 z"
         style="font-style:normal;font-variant:normal;font-weight:normal;font-stretch:normal;font-size:26.3517px;line-height:1.25;font-family:Futura;-inkscape-font-specification:Futura;stroke-width:0.976229px"
         id="path887" />
      <path
         d="m 598.9663,675.01377 -2.39327,1.27384 q -0.56615,-1.15804 -1.40251,-1.15804 -0.39888,0 -0.68196,0.27021 -0.28307,0.25734 -0.28307,0.66909 0,0.72055 1.67272,1.42824 2.3032,0.99076 3.10095,1.82712 0.79776,0.83636 0.79776,2.25173 0,1.81425 -1.33817,3.03662 -1.29957,1.15804 -3.13956,1.15804 -3.15243,0 -4.46486,-3.07523 l 2.47047,-1.14516 q 0.51468,0.90069 0.78489,1.14516 0.52755,0.48895 1.26097,0.48895 1.46684,0 1.46684,-1.33817 0,-0.77202 -1.1323,-1.44111 -0.43748,-0.21874 -0.87496,-0.42461 -0.43748,-0.20587 -0.88783,-0.42461 -1.26097,-0.61762 -1.77565,-1.23524 -0.65622,-0.78489 -0.65622,-2.02013 0,-1.63411 1.11944,-2.70207 1.14516,-1.06797 2.77928,-1.06797 2.40613,0 3.57704,2.48334 z"
         style="font-style:normal;font-variant:normal;font-weight:normal;font-stretch:normal;font-size:26.3517px;line-height:1.25;font-family:Futura;-inkscape-font-specification:Futura;stroke-width:0.976229px"
         id="path889" />
      <path
         d="m 602.38893,663.67791 h 2.89509 v 10.24216 q 1.54404,-1.38964 3.40976,-1.38964 2.12306,0 3.3969,1.37677 1.08083,1.19664 1.08083,3.82152 v 7.68162 h -2.89508 v -7.41142 q 0,-1.50544 -0.54042,-2.17453 -0.52755,-0.68195 -1.71131,-0.68195 -1.51831,0 -2.13593,0.93929 -0.60475,0.95217 -0.60475,3.26823 v 6.06038 h -2.89509 z"
         style="font-style:normal;font-variant:normal;font-weight:normal;font-stretch:normal;font-size:26.3517px;line-height:1.25;font-family:Futura;-inkscape-font-specification:Futura;stroke-width:0.976229px"
         id="path891" />
      <path
         d="m 616.25959,679.05402 q 0,-2.71494 1.94292,-4.61927 1.94293,-1.90432 4.73507,-1.90432 2.80502,0 4.76081,1.91719 1.93005,1.91719 1.93005,4.70934 0,2.81788 -1.94292,4.7222 -1.95579,1.89146 -4.7994,1.89146 -2.81789,0 -4.72221,-1.93006 -1.90432,-1.90432 -1.90432,-4.78654 z m 2.95942,0.0515 q 0,1.87859 1.00363,2.97229 1.02936,1.10656 2.71494,1.10656 1.69845,0 2.71495,-1.0937 1.0165,-1.0937 1.0165,-2.92082 0,-1.82712 -1.0165,-2.92081 -1.02936,-1.10657 -2.71495,-1.10657 -1.65985,0 -2.68921,1.10657 -1.02936,1.10656 -1.02936,2.85648 z"
         style="font-style:normal;font-variant:normal;font-weight:normal;font-stretch:normal;font-size:26.3517px;line-height:1.25;font-family:Futura;-inkscape-font-specification:Futura;stroke-width:0.976229px"
         id="path893" />
      <path
         d="m 635.59876,692.22987 h -2.89508 v -19.35203 h 2.89508 v 1.36391 q 1.71132,-1.71132 3.88585,-1.71132 2.58627,0 4.25899,1.90432 1.69845,1.89146 1.69845,4.77368 0,2.81788 -1.68559,4.69647 -1.67271,1.86572 -4.22039,1.86572 -2.20026,0 -3.93731,-1.76279 z m 6.88387,-13.00858 q 0,-1.80138 -0.9779,-2.93368 -0.99076,-1.14517 -2.4962,-1.14517 -1.59552,0 -2.58628,1.10657 -0.99076,1.10656 -0.99076,2.90795 0,1.76278 0.99076,2.90795 0.9779,1.11943 2.57341,1.11943 1.50544,0 2.48334,-1.1323 1.00363,-1.1323 1.00363,-2.83075 z"
         style="font-style:normal;font-variant:normal;font-weight:normal;font-stretch:normal;font-size:26.3517px;line-height:1.25;font-family:Futura;-inkscape-font-specification:Futura;stroke-width:0.976229px"
         id="path895" />
    </g>
  </g>
</svg>
