<?xml version="1.0" encoding="UTF-8" standalone="no"?>
<!-- Created with Inkscape (http://www.inkscape.org/) -->

<svg
   xmlns:dc="http://purl.org/dc/elements/1.1/"
   xmlns:cc="http://creativecommons.org/ns#"
   xmlns:rdf="http://www.w3.org/1999/02/22-rdf-syntax-ns#"
   xmlns:svg="http://www.w3.org/2000/svg"
   xmlns="http://www.w3.org/2000/svg"
   xmlns:sodipodi="http://sodipodi.sourceforge.net/DTD/sodipodi-0.dtd"
   xmlns:inkscape="http://www.inkscape.org/namespaces/inkscape"
   width="3.3956506in"
   height="5.2588205in"
   viewBox="0 0 305.60855 473.29384"
   id="svg3343"
   version="1.1"
   inkscape:version="0.91 r13725"
   sodipodi:docname="k0dr_logo.svg">
  <defs
     id="defs3345" />
  <sodipodi:namedview
     id="base"
     pagecolor="#ffffff"
     bordercolor="#666666"
     borderopacity="1.0"
     inkscape:pageopacity="0.0"
     inkscape:pageshadow="2"
     inkscape:zoom="0.7"
     inkscape:cx="169.65553"
     inkscape:cy="312.73108"
     inkscape:document-units="px"
     inkscape:current-layer="layer1"
     showgrid="false"
     showguides="true"
     inkscape:guide-bbox="true"
     inkscape:window-width="1280"
     inkscape:window-height="751"
     inkscape:window-x="1495"
     inkscape:window-y="1223"
     inkscape:window-maximized="1"
     fit-margin-top="0"
     fit-margin-left="0"
     fit-margin-right="0"
     fit-margin-bottom="0"
     units="in" />
  <metadata
     id="metadata3348">
    <rdf:RDF>
      <cc:Work
         rdf:about="">
        <dc:format>image/svg+xml</dc:format>
        <dc:type
           rdf:resource="http://purl.org/dc/dcmitype/StillImage" />
        <dc:title></dc:title>
      </cc:Work>
    </rdf:RDF>
  </metadata>
  <g
     inkscape:groupmode="layer"
     id="layer2"
     inkscape:label="Layer 2"
     style="display:inline"
     transform="translate(-339.45111,-238.01636)">
    <rect
       ry="0"
       y="240.01636"
       x="341.45111"
       height="469.29385"
       width="301.60855"
       id="rect3486"
       style="display:inline;fill:#ffffff;fill-opacity:1;stroke:#000000;stroke-width:4;stroke-miterlimit:4;stroke-dasharray:none;stroke-opacity:1" />
  </g>
  <g
     inkscape:label="Layer 1"
     inkscape:groupmode="layer"
     id="layer1"
     style="display:inline"
     transform="translate(-339.45111,-238.01636)">
    <g
       id="g3538"
       transform="translate(120.20815,-66.670068)">
      <g
         transform="matrix(2.345542,-0.09992772,0.09992772,2.345542,90.073903,285.98724)"
         id="g4291">
        <g
           id="g32"
           transform="matrix(1.25,0,0,-1.25,100.2021,95.270492)">
          <path
             style="fill:#1b75bc;fill-opacity:1;fill-rule:evenodd;stroke:none"
             d="M -0.40929399,0 C -6.3879169,-11.015334 -12.965665,-20.610159 -16.609261,-31.756345 c -2.227585,-5.091315 -2.961476,-4.464887 -2.961476,-4.464887 0.0079,4.236874 2.94947,12.315096 4.788418,17.356106 C -4.6617253,2.5789713 -0.81212773,7.6247768 8.9377605,22.59975 12.511159,27.73118 36.672029,56.27034 41.219088,60.456237 c 2.30339,2.883713 10.908543,1.22399 8.71554,-2.524967 C 41.094237,52.112206 32.961879,45.108893 26.321082,36.823527 19.298765,29.102646 13.174276,20.655967 7.2726563,12.079543"
             id="path34"
             inkscape:connector-curvature="0"
             sodipodi:nodetypes="ccccccccc" />
        </g>
        <g
           id="g76"
           transform="matrix(1.25,0,0,-1.25,110.85554,102.52192)" />
      </g>
    </g>
    <path
       style="display:inline;fill:#1b75bc;fill-opacity:1;fill-rule:evenodd;stroke:none"
       d="m 443.15818,347.21816 c 1.10279,0.31808 24.09664,-16.28888 24.75108,-14.6538 -16.17529,18.20331 -33.39814,35.93048 -44.65214,57.82198 -13.42176,24.60513 -20.52637,49.59979 -17.35708,77.73246 1.46527,17.33724 26.78729,18.41076 38.92779,9.23307 21.41785,-13.19972 36.82612,-34.12335 52.70664,-52.86788 23.60949,-31.68598 46.28708,-63.55725 54.18865,-103.92038 0.66442,-15.4363 -7.13429,-31.51067 -23.19397,-30.07822 -24.85252,-0.23024 -47.13148,14.57139 -63.17169,32.48996 -15.02574,10.88674 6.99615,-12.45398 12.35585,-16.71079 14.90993,-13.70774 33.1929,-29.0468 54.97581,-25.30637 18.3693,1.79046 36.37519,17.77128 33.58678,37.42789 6.02811,36.36257 -34.78426,87.99444 -63.30125,124.91686 -19.6673,23.432 -41.42903,46.00073 -71.32071,52.8399 -19.40038,5.12812 -36.54122,-5.38782 -40.73361,-30.15983 -3.41712,-46.22655 23.26327,-89.30384 52.23785,-118.76485 z"
       id="path78"
       inkscape:connector-curvature="0"
       sodipodi:nodetypes="cccccccccccccccc" />
    <g
       transform="translate(199.52789,690.52733)"
       id="text3400"
       style="font-style:normal;font-weight:normal;font-size:40px;line-height:125%;font-family:sans-serif;letter-spacing:0px;word-spacing:0px;display:inline;fill:#000000;fill-opacity:1;stroke:none;stroke-width:1px;stroke-linecap:butt;stroke-linejoin:miter;stroke-opacity:1">
      <path
         inkscape:connector-curvature="0"
         id="path3478"
         style="font-style:normal;font-variant:normal;font-weight:normal;font-stretch:normal;font-size:180px;font-family:'Share Tech Mono';-inkscape-font-specification:'Share Tech Mono'"
         d="m 164.52572,-63.0778 0,46.44 -15.66,0 0,-126 15.66,0 0,54.36 34.2,-54.36 17.1,0 -34.74,55.62 36.9,70.38 -18,0 -28.62,-56.7 -6.84,10.26 z" />
      <path
         inkscape:connector-curvature="0"
         id="path3480"
         style="font-style:normal;font-variant:normal;font-weight:normal;font-stretch:normal;font-size:180px;font-family:'Share Tech Mono';-inkscape-font-specification:'Share Tech Mono'"
         d="m 281.98363,-47.2378 q 0,14.94 -8.28,22.86 -8.1,7.74 -21.96,7.74 l -3.6,0 q -13.86,0 -22.14,-7.74 -8.1,-7.92 -8.1,-22.86 l 0,-64.8 q 0,-15.12 8.1,-22.86 8.1,-7.74 22.14,-7.74 l 3.6,0 q 14.04,0 22.14,7.74 8.1,7.74 8.1,22.86 l 0,64.8 z m -15.3,-68.22 q 0,-5.58 -4.32,-9.54 -4.14,-4.14 -10.62,-4.14 l -3.6,0 q -6.48,0 -10.8,4.14 -4.14,3.96 -4.14,9.54 l 0,48.78 33.48,-48.78 z m -33.48,71.64 q 0,5.58 4.14,9.72 4.32,3.96 10.8,3.96 l 3.6,0 q 6.48,0 10.62,-3.96 4.32,-4.14 4.32,-9.72 l 0,-48.6 -33.48,48.6 z" />
      <path
         inkscape:connector-curvature="0"
         id="path3482"
         style="font-style:normal;font-variant:normal;font-weight:normal;font-stretch:normal;font-size:180px;font-family:'Share Tech Mono';-inkscape-font-specification:'Share Tech Mono'"
         d="m 356.62153,-45.0778 q 0,15.48 -7.2,21.96 -7.02,6.48 -23.4,6.48 l -37.08,0 0,-126 34.92,0 q 16.2,0 24.48,6.66 8.28,6.48 8.28,21.42 l 0,69.48 z m -15.66,-71.1 q 0,-5.94 -3.6,-9.36 -3.6,-3.6 -9.54,-3.6 l -23.22,0 0,99 23.04,0 q 6.84,0 10.08,-3.06 3.24,-3.24 3.24,-10.08 l 0,-72.9 z" />
      <path
         inkscape:connector-curvature="0"
         id="path3484"
         style="font-style:normal;font-variant:normal;font-weight:normal;font-stretch:normal;font-size:180px;font-family:'Share Tech Mono';-inkscape-font-specification:'Share Tech Mono'"
         d="m 379.63947,-68.8378 0,52.2 -15.66,0 0,-126 33.84,0 q 15.3,0 23.04,6.84 7.92,6.66 7.92,21.24 l 0,17.28 q 0,20.34 -16.2,25.38 l 25.02,55.26 -17.1,0 -23.22,-52.2 -17.64,0 z m 33.48,-47.34 q 0,-6.84 -3.24,-9.9 -3.06,-3.06 -9.9,-3.06 l -20.34,0 0,46.8 20.34,0 q 6.84,0 9.9,-3.06 3.24,-3.24 3.24,-10.08 l 0,-20.7 z" />
    </g>
    <text
       sodipodi:linespacing="125%"
       id="text3501"
       y="702.099"
       x="346.05469"
       style="font-style:normal;font-weight:normal;font-size:36.8204689px;line-height:125%;font-family:sans-serif;letter-spacing:0px;word-spacing:0px;display:inline;fill:#000000;fill-opacity:1;stroke:none;stroke-width:1px;stroke-linecap:butt;stroke-linejoin:miter;stroke-opacity:1"
       xml:space="preserve"
       transform="scale(1.0044122,0.99560719)"><tspan
         style="font-style:normal;font-variant:normal;font-weight:normal;font-stretch:normal;font-size:26.99357796px;font-family:'Share Tech Mono';-inkscape-font-specification:'Share Tech Mono'"
         y="702.099"
         x="346.05469"
         id="tspan3503"
         sodipodi:role="line">Open Source Workshop</tspan></text>
  </g>
</svg>
