<?xml version="1.0" encoding="UTF-8" standalone="no"?>
<svg
   xmlns:dc="http://purl.org/dc/elements/1.1/"
   xmlns:cc="http://creativecommons.org/ns#"
   xmlns:rdf="http://www.w3.org/1999/02/22-rdf-syntax-ns#"
   xmlns:svg="http://www.w3.org/2000/svg"
   xmlns="http://www.w3.org/2000/svg"
   xmlns:sodipodi="http://sodipodi.sourceforge.net/DTD/sodipodi-0.dtd"
   xmlns:inkscape="http://www.inkscape.org/namespaces/inkscape"
   height="67px"
   id="Layer_1"
   style="enable-background:new 0 0 67 67;"
   version="1.1"
   viewBox="0 0 67 67"
   width="67px"
   xml:space="preserve"
   inkscape:version="0.91 r13725"
   sodipodi:docname="k0dr_circle.svg"><metadata
     id="metadata9"><rdf:RDF><cc:Work
         rdf:about=""><dc:format>image/svg+xml</dc:format><dc:type
           rdf:resource="http://purl.org/dc/dcmitype/StillImage" /><dc:title></dc:title></cc:Work></rdf:RDF></metadata><defs
     id="defs7" /><sodipodi:namedview
     pagecolor="#ffffff"
     bordercolor="#666666"
     borderopacity="1"
     objecttolerance="10"
     gridtolerance="10"
     guidetolerance="10"
     inkscape:pageopacity="0"
     inkscape:pageshadow="2"
     inkscape:window-width="1093"
     inkscape:window-height="710"
     id="namedview5"
     showgrid="false"
     inkscape:zoom="3.5223881"
     inkscape:cx="33.216102"
     inkscape:cy="33.5"
     inkscape:window-x="0"
     inkscape:window-y="0"
     inkscape:window-maximized="0"
     inkscape:current-layer="Layer_1" /><path
     style="fill-rule:evenodd;clip-rule:evenodd;fill:#010101;"
     d="M 33 4 C 16.432 4 3 17.431 3 34 C 3 50.568 16.432 64 33 64 C 49.568 64 63 50.568 63 34 C 63 17.431 49.568 4 33 4 z M 46.908203 12.367188 C 48.182429 12.416431 49.43817 13.088233 48.833984 14.121094 C 46.658866 15.552835 44.586897 17.153409 42.666016 18.917969 C 43.85323 20.001593 44.590881 21.526113 44.279297 23.205078 C 44.951478 28.700761 38.49625 36.189997 33.980469 41.548828 C 30.879065 44.939657 27.467245 48.186209 22.9375 49.021484 C 22.400032 49.139329 21.879358 49.178557 21.380859 49.142578 C 20.659785 50.606999 20.010107 52.095773 19.5 53.65625 C 18.518058 55.900552 18.195312 55.625 18.195312 55.625 C 18.198402 53.968307 19.207484 51.025352 20.003906 48.820312 C 18.454804 48.180918 17.31881 46.630248 17.017578 44.234375 C 16.800311 37.275041 21.08044 30.982222 25.617188 26.746094 C 25.780657 26.80088 29.338021 24.455508 29.425781 24.705078 C 26.881876 27.333534 24.182436 29.884228 22.353516 33.097656 C 20.181916 36.704475 18.956192 40.410048 19.251953 44.652344 C 19.297119 45.733859 19.979104 46.416017 20.890625 46.759766 C 24.905601 38.374893 26.665957 35.987996 30.761719 29.697266 C 31.72784 28.309906 36.019233 23.169871 39.724609 18.876953 C 39.439252 18.799646 39.128857 18.761663 38.791016 18.777344 C 35.062726 18.583891 31.625328 20.663414 29.103516 23.25 C 26.77891 24.787765 30.232876 21.424887 31.064453 20.820312 C 33.389716 18.858442 36.23139 16.672424 39.476562 17.373047 C 39.902168 17.432912 40.319114 17.561044 40.726562 17.716797 C 42.634654 15.52599 44.330656 13.618754 44.992188 13.009766 C 45.372946 12.533077 46.143667 12.33764 46.908203 12.367188 z M 41.378906 20.150391 C 40.338178 21.189098 39.344967 22.276526 38.423828 23.425781 C 35.328321 26.829222 32.628836 30.553412 30.027344 34.333984 L 26.640625 39.658203 C 25.248186 42.223707 23.786605 44.614437 22.476562 47.023438 C 23.402822 47.015068 24.346899 46.760808 25.035156 46.285156 C 28.333851 44.441137 30.780075 41.401017 33.283203 38.689453 C 37.029007 34.085108 40.636173 29.44646 42.080078 23.439453 C 42.181304 22.259704 41.94814 21.046359 41.378906 20.150391 z "
     id="path3" /><g
     id="g32"
     transform="matrix(0.44080992,0,0,-0.44080992,26.821861,39.658674)" /><g
     id="g76"
     transform="matrix(0.44080992,0,0,-0.44080992,30.578774,42.215875)" /></svg>