<?xml version="1.0" encoding="UTF-8" standalone="no"?>
<!-- Created with Inkscape (http://www.inkscape.org/) -->

<svg
   xmlns:dc="http://purl.org/dc/elements/1.1/"
   xmlns:cc="http://creativecommons.org/ns#"
   xmlns:rdf="http://www.w3.org/1999/02/22-rdf-syntax-ns#"
   xmlns:svg="http://www.w3.org/2000/svg"
   xmlns="http://www.w3.org/2000/svg"
   xmlns:sodipodi="http://sodipodi.sourceforge.net/DTD/sodipodi-0.dtd"
   xmlns:inkscape="http://www.inkscape.org/namespaces/inkscape"
   width="2.5030067in"
   height="1.5489004in"
   viewBox="0 0 225.27061 139.40104"
   id="svg5760"
   version="1.1"
   inkscape:version="0.91 r13725"
   sodipodi:docname="ml_logo.svg">
  <defs
     id="defs5762" />
  <sodipodi:namedview
     id="base"
     pagecolor="#ffffff"
     bordercolor="#666666"
     borderopacity="1.0"
     inkscape:pageopacity="0.0"
     inkscape:pageshadow="2"
     inkscape:zoom="5.6"
     inkscape:cx="88.592903"
     inkscape:cy="45.384906"
     inkscape:document-units="px"
     inkscape:current-layer="g5337"
     showgrid="true"
     fit-margin-top="0"
     fit-margin-left="0"
     fit-margin-right="0"
     fit-margin-bottom="0"
     inkscape:window-width="2560"
     inkscape:window-height="1391"
     inkscape:window-x="0"
     inkscape:window-y="1"
     inkscape:window-maximized="1"
     units="in"
     showguides="true"
     inkscape:guide-bbox="true">
    <inkscape:grid
       type="xygrid"
       id="grid4356"
       originx="-1.1368684e-13"
       originy="-0.5357171" />
  </sodipodi:namedview>
  <metadata
     id="metadata5765">
    <rdf:RDF>
      <cc:Work
         rdf:about="">
        <dc:format>image/svg+xml</dc:format>
        <dc:type
           rdf:resource="http://purl.org/dc/dcmitype/StillImage" />
        <dc:title></dc:title>
      </cc:Work>
    </rdf:RDF>
  </metadata>
  <g
     inkscape:label="Layer 1"
     inkscape:groupmode="layer"
     id="layer1"
     transform="translate(580.88453,114.81641)">
    <g
       transform="translate(323.20413,57.110756)"
       id="g5337">
      <path
         style="color:#000000;font-style:normal;font-variant:normal;font-weight:normal;font-stretch:normal;font-size:180px;line-height:125%;font-family:'Nova Square';-inkscape-font-specification:'Nova Square';text-indent:0;text-align:start;text-decoration:none;text-decoration-line:none;text-decoration-style:solid;text-decoration-color:#000000;letter-spacing:0px;word-spacing:0px;text-transform:none;direction:ltr;block-progression:tb;writing-mode:lr-tb;baseline-shift:baseline;text-anchor:start;white-space:normal;clip-rule:nonzero;display:inline;overflow:visible;visibility:visible;opacity:1;isolation:auto;mix-blend-mode:normal;color-interpolation:sRGB;color-interpolation-filters:linearRGB;solid-color:#000000;solid-opacity:1;fill:#000000;fill-opacity:1;fill-rule:nonzero;stroke:none;stroke-width:8;stroke-linecap:butt;stroke-linejoin:miter;stroke-miterlimit:4;stroke-dasharray:none;stroke-dashoffset:0;stroke-opacity:1;color-rendering:auto;image-rendering:auto;shape-rendering:auto;text-rendering:auto;enable-background:accumulate"
         d="m -869.97339,-171.92717 c -10.71747,0 -19.46183,2.77605 -25.41867,8.81213 -5.95691,6.03607 -8.6966,14.89666 -8.6966,25.75662 l 0.17857,80.486731 24.74534,-9.838725 0.17857,-70.648006 c 0.011,-4.36785 0.95486,-7.02311 2.25224,-8.51303 1.29738,-1.48992 3.18925,-2.36765 6.76055,-2.36765 l 26.7394,0 c 3.5713,0 5.46318,0.87773 6.76056,2.36765 1.29738,1.48992 2.25224,4.14517 2.25224,8.51303 l 0.17857,80.665303 24.92387,-10.017297 0,-70.648006 c 0,-4.36786 0.95486,-7.02311 2.25225,-8.51303 1.29738,-1.48992 3.18926,-2.36765 6.76057,-2.36765 l 26.73939,0 c 3.57129,0 5.46317,0.87773 6.76056,2.36765 1.29738,1.48992 2.25224,4.14517 2.25224,8.51303 -0.009,28.13157 0.18897,55.488837 0.17657,80.60815 l 75.23518,-0.178572 10.12393,-25.112886 -60.1244,0.357143 c -0.1462,-0.305835 -0.30892,-26.331115 -0.30892,-55.673835 0,-10.85996 -2.73965,-19.72055 -8.69653,-25.75662 -5.95688,-6.03608 -14.70124,-8.81213 -25.41871,-8.81213 l -26.73939,0 c -8.75545,0 -16.05337,2.33623 -21.45286,6.91451 -5.14685,-4.63714 -12.54437,-6.91451 -21.6752,-6.91451 l -26.73939,0 z"
         id="path4423-5-8-2-6-6"
         inkscape:connector-curvature="0"
         sodipodi:nodetypes="cssccssssssccssssscccccsssscscc"
         inkscape:export-xdpi="90"
         inkscape:export-ydpi="90" />
      <g
         style="font-style:normal;font-weight:normal;font-size:22.43501854px;line-height:125%;font-family:sans-serif;letter-spacing:0px;word-spacing:0px;fill:#000000;fill-opacity:1;stroke:none;stroke-width:1;stroke-linecap:butt;stroke-linejoin:miter;stroke-miterlimit:4;stroke-dasharray:none;stroke-opacity:1"
         id="flowRoot4198-8-6-4-8-4-1"
         inkscape:export-xdpi="90"
         inkscape:export-ydpi="90"
         transform="matrix(0.97583508,0,0,0.97583508,-21.847033,-1.3087602)">
        <path
           d="m -904.08058,-31.990423 0,-16.73139 q 0,-4.879989 4.87999,-4.879989 l 4.32228,0 q 2.50971,0 3.4857,1.338512 1.11543,-1.338512 3.48571,-1.338512 l 4.32228,0 q 4.87999,0 4.87999,4.879989 l 0,15.476535 -2.64914,1.254855 -0.13943,0 0,-16.73139 q 0,-2.37028 -2.09142,-2.37028 l -4.32228,0 q -2.09142,0 -2.09142,2.37028 l 0,15.476535 -2.64914,1.254855 -0.13943,0 0,-16.73139 q 0,-2.37028 -2.09142,-2.37028 l -4.32228,0 q -2.09142,0 -2.09142,2.37028 l 0,15.476535 -2.64914,1.254855 -0.13943,0 z"
           style="font-style:normal;font-variant:normal;font-weight:normal;font-stretch:normal;font-size:28.55490494px;font-family:'Nova Square';-inkscape-font-specification:'Nova Square';stroke:none;stroke-width:1;stroke-miterlimit:4;stroke-dasharray:none;stroke-opacity:1"
           id="path4799"
           inkscape:connector-curvature="0" />
        <path
           d="m -872.97413,-50.966608 q -0.488,-0.501941 -0.488,-1.199083 0,-0.711084 0.488,-1.213025 0.48799,-0.501942 1.18514,-0.501942 0.69714,0 1.18514,0.501942 0.48799,0.501941 0.48799,1.213025 0,0.697142 -0.48799,1.199083 -0.488,0.501942 -1.18514,0.501942 -0.69715,0 -1.18514,-0.501942 z m -0.20915,18.976185 0,-15.197679 2.64914,-1.254854 0.13943,0 0,15.197678 -2.64914,1.254855 -0.13943,0 z"
           style="font-style:normal;font-variant:normal;font-weight:normal;font-stretch:normal;font-size:28.55490494px;font-family:'Nova Square';-inkscape-font-specification:'Nova Square';stroke:none;stroke-width:1;stroke-miterlimit:4;stroke-dasharray:none;stroke-opacity:1"
           id="path4801"
           inkscape:connector-curvature="0" />
        <path
           d="m -861.33188,-32.548136 q -4.18284,0 -4.18284,-4.182848 l 0,-6.971412 q 0,-4.182847 4.18284,-4.182847 l 3.20685,0 q 4.18285,0 4.18285,4.182847 l 0,0.73897 -2.64914,1.254854 -0.13942,0 0,-1.993824 q 0,-1.673139 -1.39429,-1.673139 l -3.20685,0 q -1.39428,0 -1.39428,1.673139 l 0,6.971412 q 0,1.673139 1.39428,1.673139 l 3.20685,0 q 1.39429,0 1.39429,-1.673139 l 0,-0.738969 2.64913,-1.254855 0.13943,0 0,1.993824 q 0,4.182848 -4.18285,4.182848 l -3.20685,0 z"
           style="font-style:normal;font-variant:normal;font-weight:normal;font-stretch:normal;font-size:28.55490494px;font-family:'Nova Square';-inkscape-font-specification:'Nova Square';stroke:none;stroke-width:1;stroke-miterlimit:4;stroke-dasharray:none;stroke-opacity:1"
           id="path4803"
           inkscape:connector-curvature="0" />
        <path
           d="m -849.0343,-31.990423 0,-20.914237 2.64913,-1.254855 0.13943,0 0,6.706499 q 0.61349,-0.432227 1.39428,-0.432227 l 3.20685,0 q 4.18285,0 4.18285,4.182847 l 0,10.457118 -2.64914,1.254855 -0.13942,0 0,-11.711973 q 0,-1.673139 -1.39429,-1.673139 l -3.20685,0 q -1.39428,0 -1.39428,1.673139 l 0,10.457118 -2.64914,1.254855 -0.13942,0 z"
           style="font-style:normal;font-variant:normal;font-weight:normal;font-stretch:normal;font-size:28.55490494px;font-family:'Nova Square';-inkscape-font-specification:'Nova Square';stroke:none;stroke-width:1;stroke-miterlimit:4;stroke-dasharray:none;stroke-opacity:1"
           id="path4805"
           inkscape:connector-curvature="0" />
        <path
           d="m -829.79321,-35.057845 2.92799,0 q 1.39429,0 1.39429,-1.673139 l 0,-1.910167 q 0,-1.673139 -1.39429,-1.673139 l -2.92799,0 q -1.39428,0 -1.39428,1.673139 l 0,1.910167 q 0,1.673139 1.39428,1.673139 z m 0,2.509709 q -4.18285,0 -4.18285,-4.182848 l 0,-1.910167 q 0,-4.182847 4.18285,-4.182847 l 2.92799,0 q 0.72503,0 1.39429,0.418285 l 0,-1.296683 q 0,-1.673139 -1.39429,-1.673139 l -4.99153,0 0,-0.139428 1.11543,-2.37028 3.8761,0 q 4.18285,0 4.18285,4.182847 l 0,10.457118 -2.64913,1.254855 -0.13943,0 0,-0.975998 q -0.52983,0.418285 -1.39429,0.418285 l -2.92799,0 z"
           style="font-style:normal;font-variant:normal;font-weight:normal;font-stretch:normal;font-size:28.55490494px;font-family:'Nova Square';-inkscape-font-specification:'Nova Square';stroke:none;stroke-width:1;stroke-miterlimit:4;stroke-dasharray:none;stroke-opacity:1"
           id="path4807"
           inkscape:connector-curvature="0" />
        <path
           d="m -814.2609,-32.548136 q -4.18285,0 -4.18285,-4.182848 l 0,-6.971412 q 0,-4.182847 4.18285,-4.182847 l 3.20685,0 q 4.18285,0 4.18285,4.182847 l 0,0.73897 -8.74215,6.76227 q 0.1952,1.143311 1.35245,1.143311 l 3.20685,0 q 1.39428,0 1.39428,-1.673139 l 0,-0.738969 2.64914,-1.254855 0.13943,0 0,1.993824 q 0,4.182848 -4.18285,4.182848 l -3.20685,0 z m -1.39428,-6.567071 5.98147,-4.824217 q -0.0837,-1.436111 -1.38034,-1.436111 l -3.20685,0 q -1.39428,0 -1.39428,1.673139 l 0,4.587189 z"
           style="font-style:normal;font-variant:normal;font-weight:normal;font-stretch:normal;font-size:28.55490494px;font-family:'Nova Square';-inkscape-font-specification:'Nova Square';stroke:none;stroke-width:1;stroke-miterlimit:4;stroke-dasharray:none;stroke-opacity:1"
           id="path4809"
           inkscape:connector-curvature="0" />
        <path
           d="m -801.96333,-31.990423 0,-20.914237 2.64914,-1.254855 0.13943,0 0,20.914237 -2.64914,1.254855 -0.13943,0 z"
           style="font-style:normal;font-variant:normal;font-weight:normal;font-stretch:normal;font-size:28.55490494px;font-family:'Nova Square';-inkscape-font-specification:'Nova Square';stroke:none;stroke-width:1;stroke-miterlimit:4;stroke-dasharray:none;stroke-opacity:1"
           id="path4811"
           inkscape:connector-curvature="0" />
        <path
           d="m -782.44338,-32.548136 0,-20.356524 2.64914,-1.254855 0.13943,0 0,19.073785 9.55083,0 0,0.139428 -1.12937,2.398166 -11.21003,0 z"
           style="font-style:normal;font-variant:normal;font-weight:normal;font-stretch:normal;font-size:28.55490494px;font-family:'Nova Square';-inkscape-font-specification:'Nova Square';stroke:none;stroke-width:1;stroke-miterlimit:4;stroke-dasharray:none;stroke-opacity:1"
           id="path4813"
           inkscape:connector-curvature="0" />
        <path
           d="m -765.54467,-35.057845 2.928,0 q 1.39428,0 1.39428,-1.673139 l 0,-1.910167 q 0,-1.673139 -1.39428,-1.673139 l -2.928,0 q -1.39428,0 -1.39428,1.673139 l 0,1.910167 q 0,1.673139 1.39428,1.673139 z m 0,2.509709 q -4.18284,0 -4.18284,-4.182848 l 0,-1.910167 q 0,-4.182847 4.18284,-4.182847 l 2.928,0 q 0.72502,0 1.39428,0.418285 l 0,-1.296683 q 0,-1.673139 -1.39428,-1.673139 l -4.99153,0 0,-0.139428 1.11542,-2.37028 3.87611,0 q 4.18284,0 4.18284,4.182847 l 0,10.457118 -2.64913,1.254855 -0.13943,0 0,-0.975998 q -0.52983,0.418285 -1.39428,0.418285 l -2.928,0 z"
           style="font-style:normal;font-variant:normal;font-weight:normal;font-stretch:normal;font-size:28.55490494px;font-family:'Nova Square';-inkscape-font-specification:'Nova Square';stroke:none;stroke-width:1;stroke-miterlimit:4;stroke-dasharray:none;stroke-opacity:1"
           id="path4815"
           inkscape:connector-curvature="0" />
        <path
           d="m -748.61808,-32.548136 q -4.87999,0 -4.87999,-4.879989 l 0,-11.293688 q 0,-4.879989 4.87999,-4.879989 l 4.32227,0 q 4.87999,0 4.87999,4.879989 l 0,1.533711 -2.64914,1.254854 -0.13942,0 0,-2.788565 q 0,-2.37028 -2.09143,-2.37028 l -4.32227,0 q -2.09143,0 -2.09143,2.37028 l 0,11.293688 q 0,2.37028 2.09143,2.37028 l 4.32227,0 q 2.09143,0 2.09143,-2.37028 l 0,-4.378047 -4.85211,0 0,-0.139428 1.12937,-2.398166 6.5113,0 0,6.915641 q 0,4.879989 -4.87999,4.879989 l -4.32227,0 z"
           style="font-style:normal;font-variant:normal;font-weight:normal;font-stretch:normal;font-size:28.55490494px;font-family:'Nova Square';-inkscape-font-specification:'Nova Square';stroke:none;stroke-width:1;stroke-miterlimit:4;stroke-dasharray:none;stroke-opacity:1"
           id="path4817"
           inkscape:connector-curvature="0" />
        <path
           d="m -734.50794,-31.990423 0,-11.711973 q 0,-4.182847 4.18285,-4.182847 l 3.4857,0 0,0.139428 -1.11542,2.37028 -2.37028,0 q -1.39429,0 -1.39429,1.673139 l 0,10.457118 -2.64913,1.254855 -0.13943,0 z"
           style="font-style:normal;font-variant:normal;font-weight:normal;font-stretch:normal;font-size:28.55490494px;font-family:'Nova Square';-inkscape-font-specification:'Nova Square';stroke:none;stroke-width:1;stroke-miterlimit:4;stroke-dasharray:none;stroke-opacity:1"
           id="path4819"
           inkscape:connector-curvature="0" />
        <path
           d="m -720.92763,-35.057845 2.92799,0 q 1.39428,0 1.39428,-1.673139 l 0,-1.910167 q 0,-1.673139 -1.39428,-1.673139 l -2.92799,0 q -1.39428,0 -1.39428,1.673139 l 0,1.910167 q 0,1.673139 1.39428,1.673139 z m 0,2.509709 q -4.18285,0 -4.18285,-4.182848 l 0,-1.910167 q 0,-4.182847 4.18285,-4.182847 l 2.92799,0 q 0.72503,0 1.39428,0.418285 l 0,-1.296683 q 0,-1.673139 -1.39428,-1.673139 l -4.99153,0 0,-0.139428 1.11543,-2.37028 3.8761,0 q 4.18285,0 4.18285,4.182847 l 0,10.457118 -2.64914,1.254855 -0.13943,0 0,-0.975998 q -0.52982,0.418285 -1.39428,0.418285 l -2.92799,0 z"
           style="font-style:normal;font-variant:normal;font-weight:normal;font-stretch:normal;font-size:28.55490494px;font-family:'Nova Square';-inkscape-font-specification:'Nova Square';stroke:none;stroke-width:1;stroke-miterlimit:4;stroke-dasharray:none;stroke-opacity:1"
           id="path4821"
           inkscape:connector-curvature="0" />
        <path
           d="m -705.81362,-32.548136 q -4.18284,0 -4.18284,-4.182848 l 0,-0.501941 2.64913,-1.254855 0.13943,0 0,1.756796 q 0,1.673139 1.39428,1.673139 l 3.20685,0 q 1.39429,0 1.39429,-1.673139 l 0,-1.101483 q 0,-1.673139 -1.39429,-1.673139 l -2.62125,0 q -4.18284,0 -4.18284,-4.19679 0,-4.182847 4.18284,-4.182847 l 1.63131,0 q 4.18285,0 4.18285,3.374163 l -2.64914,1.254854 -0.13942,0 0,-0.44617 q 0,-1.673139 -1.39429,-1.673139 l -1.63131,0 q -1.39428,0 -1.39428,1.673139 0,1.687082 1.39428,1.687082 l 2.62125,0 q 4.18285,0 4.18285,4.182847 l 0,1.101483 q 0,4.182848 -4.18285,4.182848 l -3.20685,0 z"
           style="font-style:normal;font-variant:normal;font-weight:normal;font-stretch:normal;font-size:28.55490494px;font-family:'Nova Square';-inkscape-font-specification:'Nova Square';stroke:none;stroke-width:1;stroke-miterlimit:4;stroke-dasharray:none;stroke-opacity:1"
           id="path4823"
           inkscape:connector-curvature="0" />
        <path
           d="m -692.79101,-31.990423 0,-13.357226 -3.5833,0 0,-0.139429 1.12936,-2.398165 2.45394,0 0,-5.019417 2.64914,-1.254855 0.13943,0 0,6.274272 3.5833,0 0,0.139428 -1.12937,2.398166 -2.45393,0 0,12.102371 -2.64914,1.254855 -0.13943,0 z"
           style="font-style:normal;font-variant:normal;font-weight:normal;font-stretch:normal;font-size:28.55490494px;font-family:'Nova Square';-inkscape-font-specification:'Nova Square';stroke:none;stroke-width:1;stroke-miterlimit:4;stroke-dasharray:none;stroke-opacity:1"
           id="path4825"
           inkscape:connector-curvature="0" />
        <path
           d="m -680.49344,-35.057845 2.92799,0 q 1.39428,0 1.39428,-1.673139 l 0,-1.910167 q 0,-1.673139 -1.39428,-1.673139 l -2.92799,0 q -1.39428,0 -1.39428,1.673139 l 0,1.910167 q 0,1.673139 1.39428,1.673139 z m 0,2.509709 q -4.18285,0 -4.18285,-4.182848 l 0,-1.910167 q 0,-4.182847 4.18285,-4.182847 l 2.92799,0 q 0.72503,0 1.39428,0.418285 l 0,-1.296683 q 0,-1.673139 -1.39428,-1.673139 l -4.99153,0 0,-0.139428 1.11543,-2.37028 3.8761,0 q 4.18285,0 4.18285,4.182847 l 0,10.457118 -2.64914,1.254855 -0.13943,0 0,-0.975998 q -0.52982,0.418285 -1.39428,0.418285 l -2.92799,0 z"
           style="font-style:normal;font-variant:normal;font-weight:normal;font-stretch:normal;font-size:28.55490494px;font-family:'Nova Square';-inkscape-font-specification:'Nova Square';stroke:none;stroke-width:1;stroke-miterlimit:4;stroke-dasharray:none;stroke-opacity:1"
           id="path4827"
           inkscape:connector-curvature="0" />
      </g>
    </g>
  </g>
</svg>
