<?xml version="1.0" encoding="UTF-8" standalone="no"?>
<!-- Created with Inkscape (http://www.inkscape.org/) -->

<svg
   xmlns:dc="http://purl.org/dc/elements/1.1/"
   xmlns:cc="http://creativecommons.org/ns#"
   xmlns:rdf="http://www.w3.org/1999/02/22-rdf-syntax-ns#"
   xmlns:svg="http://www.w3.org/2000/svg"
   xmlns="http://www.w3.org/2000/svg"
   xmlns:sodipodi="http://sodipodi.sourceforge.net/DTD/sodipodi-0.dtd"
   xmlns:inkscape="http://www.inkscape.org/namespaces/inkscape"
   width="2.5634007in"
   height="1.5620332in"
   viewBox="0 0 230.70607 140.58299"
   id="svg5760"
   version="1.1"
   inkscape:version="0.91 r13725"
   sodipodi:docname="ml_logo.svg">
  <defs
     id="defs5762" />
  <sodipodi:namedview
     id="base"
     pagecolor="#ffffff"
     bordercolor="#666666"
     borderopacity="1.0"
     inkscape:pageopacity="0.0"
     inkscape:pageshadow="2"
     inkscape:zoom="3.959798"
     inkscape:cx="95.769097"
     inkscape:cy="67.251435"
     inkscape:document-units="px"
     inkscape:current-layer="g5337"
     showgrid="false"
     fit-margin-top="0"
     fit-margin-left="0"
     fit-margin-right="0"
     fit-margin-bottom="0"
     inkscape:window-width="2560"
     inkscape:window-height="1391"
     inkscape:window-x="0"
     inkscape:window-y="166"
     inkscape:window-maximized="1"
     units="in" />
  <metadata
     id="metadata5765">
    <rdf:RDF>
      <cc:Work
         rdf:about="">
        <dc:format>image/svg+xml</dc:format>
        <dc:type
           rdf:resource="http://purl.org/dc/dcmitype/StillImage" />
        <dc:title></dc:title>
      </cc:Work>
    </rdf:RDF>
  </metadata>
  <g
     inkscape:label="Layer 1"
     inkscape:groupmode="layer"
     id="layer1"
     transform="translate(580.88453,115.46265)">
    <g
       transform="translate(323.20413,57.110756)"
       id="g5337">
      <path
         style="color:#000000;font-style:normal;font-variant:normal;font-weight:normal;font-stretch:normal;font-size:180px;line-height:125%;font-family:'Nova Square';-inkscape-font-specification:'Nova Square';text-indent:0;text-align:start;text-decoration:none;text-decoration-line:none;text-decoration-style:solid;text-decoration-color:#000000;letter-spacing:0px;word-spacing:0px;text-transform:none;direction:ltr;block-progression:tb;writing-mode:lr-tb;baseline-shift:baseline;text-anchor:start;white-space:normal;clip-rule:nonzero;display:inline;overflow:visible;visibility:visible;opacity:1;isolation:auto;mix-blend-mode:normal;color-interpolation:sRGB;color-interpolation-filters:linearRGB;solid-color:#000000;solid-opacity:1;fill:#000000;fill-opacity:1;fill-rule:nonzero;stroke:none;stroke-width:8;stroke-linecap:butt;stroke-linejoin:miter;stroke-miterlimit:4;stroke-dasharray:none;stroke-dashoffset:0;stroke-opacity:1;color-rendering:auto;image-rendering:auto;shape-rendering:auto;text-rendering:auto;enable-background:accumulate"
         d="m -869.32691,-172.57341 c -10.92057,0 -19.83063,2.79156 -25.90035,8.86132 -6.0698,6.06977 -8.8614,14.97982 -8.8614,25.9004 l 0,81.654287 25.57816,-11.50976 0,-70.144527 c 0,-4.39224 0.97295,-7.06232 2.29492,-8.56055 1.32196,-1.49823 3.24969,-2.38086 6.88867,-2.38086 l 27.24609,0 c 3.63898,0 5.56671,0.88263 6.88868,2.38086 1.32196,1.49823 2.29492,4.16831 2.29492,8.56055 l 0,81.654287 25.57812,-11.50976 0,-70.144527 c 0,-4.39224 0.97295,-7.06232 2.29492,-8.56055 1.32197,-1.49823 3.2497,-2.38086 6.88868,-2.38086 l 27.24609,0 c 3.63897,0 5.5667,0.88263 6.88867,2.38086 1.32197,1.49823 2.29492,4.16831 2.29492,8.56055 -0.009,28.2886 0.0106,55.080307 -0.002,80.339837 l 77.38868,0 10.67968,-23.99609 -62.35547,0 c 0.24057,-30.369347 -0.13281,-26.837227 -0.13281,-56.343747 0,-10.92058 -2.79157,-19.83063 -8.86133,-25.9004 -6.06976,-6.06976 -14.97982,-8.86132 -25.90039,-8.86132 l -27.24609,0 c -8.92136,0 -16.35757,2.34927 -21.85938,6.95312 -5.24438,-4.66303 -12.78208,-6.95312 -22.08594,-6.95312 l -27.24609,0 z"
         id="path4423-5-8-2-6-6"
         inkscape:connector-curvature="0"
         sodipodi:nodetypes="cssccssssssccssssscccccsssscscc" />
      <g
         style="font-style:normal;font-weight:normal;font-size:22.43501854px;line-height:125%;font-family:sans-serif;letter-spacing:0px;word-spacing:0px;fill:#000000;fill-opacity:1;stroke:none;stroke-width:1;stroke-linecap:butt;stroke-linejoin:miter;stroke-miterlimit:4;stroke-dasharray:none;stroke-opacity:1"
         id="flowRoot4198-8-6-4-8-4-1">
        <path
           d="m -904.08058,-31.990423 0,-16.73139 q 0,-4.879989 4.87999,-4.879989 l 4.32228,0 q 2.50971,0 3.4857,1.338512 1.11543,-1.338512 3.48571,-1.338512 l 4.32228,0 q 4.87999,0 4.87999,4.879989 l 0,15.476535 -2.64914,1.254855 -0.13943,0 0,-16.73139 q 0,-2.37028 -2.09142,-2.37028 l -4.32228,0 q -2.09142,0 -2.09142,2.37028 l 0,15.476535 -2.64914,1.254855 -0.13943,0 0,-16.73139 q 0,-2.37028 -2.09142,-2.37028 l -4.32228,0 q -2.09142,0 -2.09142,2.37028 l 0,15.476535 -2.64914,1.254855 -0.13943,0 z"
           style="font-style:normal;font-variant:normal;font-weight:normal;font-stretch:normal;font-size:28.55490494px;font-family:'Nova Square';-inkscape-font-specification:'Nova Square';stroke:none;stroke-width:1;stroke-miterlimit:4;stroke-dasharray:none;stroke-opacity:1"
           id="path4799" />
        <path
           d="m -872.97413,-50.966608 q -0.488,-0.501941 -0.488,-1.199083 0,-0.711084 0.488,-1.213025 0.48799,-0.501942 1.18514,-0.501942 0.69714,0 1.18514,0.501942 0.48799,0.501941 0.48799,1.213025 0,0.697142 -0.48799,1.199083 -0.488,0.501942 -1.18514,0.501942 -0.69715,0 -1.18514,-0.501942 z m -0.20915,18.976185 0,-15.197679 2.64914,-1.254854 0.13943,0 0,15.197678 -2.64914,1.254855 -0.13943,0 z"
           style="font-style:normal;font-variant:normal;font-weight:normal;font-stretch:normal;font-size:28.55490494px;font-family:'Nova Square';-inkscape-font-specification:'Nova Square';stroke:none;stroke-width:1;stroke-miterlimit:4;stroke-dasharray:none;stroke-opacity:1"
           id="path4801" />
        <path
           d="m -861.33188,-32.548136 q -4.18284,0 -4.18284,-4.182848 l 0,-6.971412 q 0,-4.182847 4.18284,-4.182847 l 3.20685,0 q 4.18285,0 4.18285,4.182847 l 0,0.73897 -2.64914,1.254854 -0.13942,0 0,-1.993824 q 0,-1.673139 -1.39429,-1.673139 l -3.20685,0 q -1.39428,0 -1.39428,1.673139 l 0,6.971412 q 0,1.673139 1.39428,1.673139 l 3.20685,0 q 1.39429,0 1.39429,-1.673139 l 0,-0.738969 2.64913,-1.254855 0.13943,0 0,1.993824 q 0,4.182848 -4.18285,4.182848 l -3.20685,0 z"
           style="font-style:normal;font-variant:normal;font-weight:normal;font-stretch:normal;font-size:28.55490494px;font-family:'Nova Square';-inkscape-font-specification:'Nova Square';stroke:none;stroke-width:1;stroke-miterlimit:4;stroke-dasharray:none;stroke-opacity:1"
           id="path4803" />
        <path
           d="m -849.0343,-31.990423 0,-20.914237 2.64913,-1.254855 0.13943,0 0,6.706499 q 0.61349,-0.432227 1.39428,-0.432227 l 3.20685,0 q 4.18285,0 4.18285,4.182847 l 0,10.457118 -2.64914,1.254855 -0.13942,0 0,-11.711973 q 0,-1.673139 -1.39429,-1.673139 l -3.20685,0 q -1.39428,0 -1.39428,1.673139 l 0,10.457118 -2.64914,1.254855 -0.13942,0 z"
           style="font-style:normal;font-variant:normal;font-weight:normal;font-stretch:normal;font-size:28.55490494px;font-family:'Nova Square';-inkscape-font-specification:'Nova Square';stroke:none;stroke-width:1;stroke-miterlimit:4;stroke-dasharray:none;stroke-opacity:1"
           id="path4805" />
        <path
           d="m -829.79321,-35.057845 2.92799,0 q 1.39429,0 1.39429,-1.673139 l 0,-1.910167 q 0,-1.673139 -1.39429,-1.673139 l -2.92799,0 q -1.39428,0 -1.39428,1.673139 l 0,1.910167 q 0,1.673139 1.39428,1.673139 z m 0,2.509709 q -4.18285,0 -4.18285,-4.182848 l 0,-1.910167 q 0,-4.182847 4.18285,-4.182847 l 2.92799,0 q 0.72503,0 1.39429,0.418285 l 0,-1.296683 q 0,-1.673139 -1.39429,-1.673139 l -4.99153,0 0,-0.139428 1.11543,-2.37028 3.8761,0 q 4.18285,0 4.18285,4.182847 l 0,10.457118 -2.64913,1.254855 -0.13943,0 0,-0.975998 q -0.52983,0.418285 -1.39429,0.418285 l -2.92799,0 z"
           style="font-style:normal;font-variant:normal;font-weight:normal;font-stretch:normal;font-size:28.55490494px;font-family:'Nova Square';-inkscape-font-specification:'Nova Square';stroke:none;stroke-width:1;stroke-miterlimit:4;stroke-dasharray:none;stroke-opacity:1"
           id="path4807" />
        <path
           d="m -814.2609,-32.548136 q -4.18285,0 -4.18285,-4.182848 l 0,-6.971412 q 0,-4.182847 4.18285,-4.182847 l 3.20685,0 q 4.18285,0 4.18285,4.182847 l 0,0.73897 -8.74215,6.76227 q 0.1952,1.143311 1.35245,1.143311 l 3.20685,0 q 1.39428,0 1.39428,-1.673139 l 0,-0.738969 2.64914,-1.254855 0.13943,0 0,1.993824 q 0,4.182848 -4.18285,4.182848 l -3.20685,0 z m -1.39428,-6.567071 5.98147,-4.824217 q -0.0837,-1.436111 -1.38034,-1.436111 l -3.20685,0 q -1.39428,0 -1.39428,1.673139 l 0,4.587189 z"
           style="font-style:normal;font-variant:normal;font-weight:normal;font-stretch:normal;font-size:28.55490494px;font-family:'Nova Square';-inkscape-font-specification:'Nova Square';stroke:none;stroke-width:1;stroke-miterlimit:4;stroke-dasharray:none;stroke-opacity:1"
           id="path4809" />
        <path
           d="m -801.96333,-31.990423 0,-20.914237 2.64914,-1.254855 0.13943,0 0,20.914237 -2.64914,1.254855 -0.13943,0 z"
           style="font-style:normal;font-variant:normal;font-weight:normal;font-stretch:normal;font-size:28.55490494px;font-family:'Nova Square';-inkscape-font-specification:'Nova Square';stroke:none;stroke-width:1;stroke-miterlimit:4;stroke-dasharray:none;stroke-opacity:1"
           id="path4811" />
        <path
           d="m -782.44338,-32.548136 0,-20.356524 2.64914,-1.254855 0.13943,0 0,19.073785 9.55083,0 0,0.139428 -1.12937,2.398166 -11.21003,0 z"
           style="font-style:normal;font-variant:normal;font-weight:normal;font-stretch:normal;font-size:28.55490494px;font-family:'Nova Square';-inkscape-font-specification:'Nova Square';stroke:none;stroke-width:1;stroke-miterlimit:4;stroke-dasharray:none;stroke-opacity:1"
           id="path4813" />
        <path
           d="m -765.54467,-35.057845 2.928,0 q 1.39428,0 1.39428,-1.673139 l 0,-1.910167 q 0,-1.673139 -1.39428,-1.673139 l -2.928,0 q -1.39428,0 -1.39428,1.673139 l 0,1.910167 q 0,1.673139 1.39428,1.673139 z m 0,2.509709 q -4.18284,0 -4.18284,-4.182848 l 0,-1.910167 q 0,-4.182847 4.18284,-4.182847 l 2.928,0 q 0.72502,0 1.39428,0.418285 l 0,-1.296683 q 0,-1.673139 -1.39428,-1.673139 l -4.99153,0 0,-0.139428 1.11542,-2.37028 3.87611,0 q 4.18284,0 4.18284,4.182847 l 0,10.457118 -2.64913,1.254855 -0.13943,0 0,-0.975998 q -0.52983,0.418285 -1.39428,0.418285 l -2.928,0 z"
           style="font-style:normal;font-variant:normal;font-weight:normal;font-stretch:normal;font-size:28.55490494px;font-family:'Nova Square';-inkscape-font-specification:'Nova Square';stroke:none;stroke-width:1;stroke-miterlimit:4;stroke-dasharray:none;stroke-opacity:1"
           id="path4815" />
        <path
           d="m -748.61808,-32.548136 q -4.87999,0 -4.87999,-4.879989 l 0,-11.293688 q 0,-4.879989 4.87999,-4.879989 l 4.32227,0 q 4.87999,0 4.87999,4.879989 l 0,1.533711 -2.64914,1.254854 -0.13942,0 0,-2.788565 q 0,-2.37028 -2.09143,-2.37028 l -4.32227,0 q -2.09143,0 -2.09143,2.37028 l 0,11.293688 q 0,2.37028 2.09143,2.37028 l 4.32227,0 q 2.09143,0 2.09143,-2.37028 l 0,-4.378047 -4.85211,0 0,-0.139428 1.12937,-2.398166 6.5113,0 0,6.915641 q 0,4.879989 -4.87999,4.879989 l -4.32227,0 z"
           style="font-style:normal;font-variant:normal;font-weight:normal;font-stretch:normal;font-size:28.55490494px;font-family:'Nova Square';-inkscape-font-specification:'Nova Square';stroke:none;stroke-width:1;stroke-miterlimit:4;stroke-dasharray:none;stroke-opacity:1"
           id="path4817" />
        <path
           d="m -734.50794,-31.990423 0,-11.711973 q 0,-4.182847 4.18285,-4.182847 l 3.4857,0 0,0.139428 -1.11542,2.37028 -2.37028,0 q -1.39429,0 -1.39429,1.673139 l 0,10.457118 -2.64913,1.254855 -0.13943,0 z"
           style="font-style:normal;font-variant:normal;font-weight:normal;font-stretch:normal;font-size:28.55490494px;font-family:'Nova Square';-inkscape-font-specification:'Nova Square';stroke:none;stroke-width:1;stroke-miterlimit:4;stroke-dasharray:none;stroke-opacity:1"
           id="path4819" />
        <path
           d="m -720.92763,-35.057845 2.92799,0 q 1.39428,0 1.39428,-1.673139 l 0,-1.910167 q 0,-1.673139 -1.39428,-1.673139 l -2.92799,0 q -1.39428,0 -1.39428,1.673139 l 0,1.910167 q 0,1.673139 1.39428,1.673139 z m 0,2.509709 q -4.18285,0 -4.18285,-4.182848 l 0,-1.910167 q 0,-4.182847 4.18285,-4.182847 l 2.92799,0 q 0.72503,0 1.39428,0.418285 l 0,-1.296683 q 0,-1.673139 -1.39428,-1.673139 l -4.99153,0 0,-0.139428 1.11543,-2.37028 3.8761,0 q 4.18285,0 4.18285,4.182847 l 0,10.457118 -2.64914,1.254855 -0.13943,0 0,-0.975998 q -0.52982,0.418285 -1.39428,0.418285 l -2.92799,0 z"
           style="font-style:normal;font-variant:normal;font-weight:normal;font-stretch:normal;font-size:28.55490494px;font-family:'Nova Square';-inkscape-font-specification:'Nova Square';stroke:none;stroke-width:1;stroke-miterlimit:4;stroke-dasharray:none;stroke-opacity:1"
           id="path4821" />
        <path
           d="m -705.81362,-32.548136 q -4.18284,0 -4.18284,-4.182848 l 0,-0.501941 2.64913,-1.254855 0.13943,0 0,1.756796 q 0,1.673139 1.39428,1.673139 l 3.20685,0 q 1.39429,0 1.39429,-1.673139 l 0,-1.101483 q 0,-1.673139 -1.39429,-1.673139 l -2.62125,0 q -4.18284,0 -4.18284,-4.19679 0,-4.182847 4.18284,-4.182847 l 1.63131,0 q 4.18285,0 4.18285,3.374163 l -2.64914,1.254854 -0.13942,0 0,-0.44617 q 0,-1.673139 -1.39429,-1.673139 l -1.63131,0 q -1.39428,0 -1.39428,1.673139 0,1.687082 1.39428,1.687082 l 2.62125,0 q 4.18285,0 4.18285,4.182847 l 0,1.101483 q 0,4.182848 -4.18285,4.182848 l -3.20685,0 z"
           style="font-style:normal;font-variant:normal;font-weight:normal;font-stretch:normal;font-size:28.55490494px;font-family:'Nova Square';-inkscape-font-specification:'Nova Square';stroke:none;stroke-width:1;stroke-miterlimit:4;stroke-dasharray:none;stroke-opacity:1"
           id="path4823" />
        <path
           d="m -692.79101,-31.990423 0,-13.357226 -3.5833,0 0,-0.139429 1.12936,-2.398165 2.45394,0 0,-5.019417 2.64914,-1.254855 0.13943,0 0,6.274272 3.5833,0 0,0.139428 -1.12937,2.398166 -2.45393,0 0,12.102371 -2.64914,1.254855 -0.13943,0 z"
           style="font-style:normal;font-variant:normal;font-weight:normal;font-stretch:normal;font-size:28.55490494px;font-family:'Nova Square';-inkscape-font-specification:'Nova Square';stroke:none;stroke-width:1;stroke-miterlimit:4;stroke-dasharray:none;stroke-opacity:1"
           id="path4825" />
        <path
           d="m -680.49344,-35.057845 2.92799,0 q 1.39428,0 1.39428,-1.673139 l 0,-1.910167 q 0,-1.673139 -1.39428,-1.673139 l -2.92799,0 q -1.39428,0 -1.39428,1.673139 l 0,1.910167 q 0,1.673139 1.39428,1.673139 z m 0,2.509709 q -4.18285,0 -4.18285,-4.182848 l 0,-1.910167 q 0,-4.182847 4.18285,-4.182847 l 2.92799,0 q 0.72503,0 1.39428,0.418285 l 0,-1.296683 q 0,-1.673139 -1.39428,-1.673139 l -4.99153,0 0,-0.139428 1.11543,-2.37028 3.8761,0 q 4.18285,0 4.18285,4.182847 l 0,10.457118 -2.64914,1.254855 -0.13943,0 0,-0.975998 q -0.52982,0.418285 -1.39428,0.418285 l -2.92799,0 z"
           style="font-style:normal;font-variant:normal;font-weight:normal;font-stretch:normal;font-size:28.55490494px;font-family:'Nova Square';-inkscape-font-specification:'Nova Square';stroke:none;stroke-width:1;stroke-miterlimit:4;stroke-dasharray:none;stroke-opacity:1"
           id="path4827" />
      </g>
    </g>
  </g>
</svg>
