<?xml version="1.0" encoding="UTF-8" standalone="no"?>
<svg
   xmlns:dc="http://purl.org/dc/elements/1.1/"
   xmlns:cc="http://creativecommons.org/ns#"
   xmlns:rdf="http://www.w3.org/1999/02/22-rdf-syntax-ns#"
   xmlns:svg="http://www.w3.org/2000/svg"
   xmlns="http://www.w3.org/2000/svg"
   xmlns:sodipodi="http://sodipodi.sourceforge.net/DTD/sodipodi-0.dtd"
   xmlns:inkscape="http://www.inkscape.org/namespaces/inkscape"
   height="67px"
   id="Layer_1"
   style="enable-background:new 0 0 67 67;"
   version="1.1"
   viewBox="0 0 67 67"
   width="67px"
   xml:space="preserve"
   inkscape:version="0.91 r13725"
   sodipodi:docname="youtube_circle.svg"><metadata
     id="metadata9"><rdf:RDF><cc:Work
         rdf:about=""><dc:format>image/svg+xml</dc:format><dc:type
           rdf:resource="http://purl.org/dc/dcmitype/StillImage" /><dc:title></dc:title></cc:Work></rdf:RDF></metadata><defs
     id="defs7" /><sodipodi:namedview
     pagecolor="#ffffff"
     bordercolor="#666666"
     borderopacity="1"
     objecttolerance="10"
     gridtolerance="10"
     guidetolerance="10"
     inkscape:pageopacity="0"
     inkscape:pageshadow="2"
     inkscape:window-width="1002"
     inkscape:window-height="585"
     id="namedview5"
     showgrid="false"
     inkscape:zoom="3.5223881"
     inkscape:cx="33.5"
     inkscape:cy="33.5"
     inkscape:window-x="574"
     inkscape:window-y="892"
     inkscape:window-maximized="0"
     inkscape:current-layer="Layer_1" /><g
     style="fill:none;fill-rule:evenodd;stroke:none;stroke-width:1"
     id="black"
     transform="translate(3.5,3.5)"><g
       id="youtube"><path
         style="fill:#000000"
         inkscape:connector-curvature="0"
         d="M 30,60 C 46.568543,60 60,46.568543 60,30 60,13.431457 46.568543,0 30,0 13.431457,0 0,13.431457 0,30 0,46.568543 13.431457,60 30,60 Z"
         id="path19" /><path
         style="fill:#ffffff"
         inkscape:connector-curvature="0"
         d="m 41.716569,28.846154 -23.433558,0 c -3.725397,0 -6.744549,2.748905 -6.744549,6.451253 l 0,6.459416 c 0,3.70194 3.019152,6.704716 6.744549,6.704716 l 23.433558,0 c 3.724558,0 6.74497,-3.002368 6.74497,-6.704716 l 0,-6.408397 c 0,-3.702348 -3.020412,-6.502272 -6.74497,-6.502272 z m -18.838189,5.253733 -2.259517,0 0,10.442052 -2.184244,0 0,-10.442052 -2.259082,0 0,-1.776983 6.702843,0 0,1.776983 z m 5.787811,10.88808 -1.937537,0 0,-0.987917 c -0.359835,0.365617 -0.730112,0.644087 -1.118664,0.832639 -0.386811,0.196078 -0.761439,0.28877 -1.125625,0.28877 -0.449902,0 -0.78363,-0.133492 -1.013367,-0.403644 -0.224516,-0.269756 -0.340255,-0.668646 -0.340255,-1.208158 l 0,-7.536927 1.937537,0 0,6.916211 c 0,0.213111 0.04221,0.367201 0.12009,0.461081 0.08398,0.09863 0.216684,0.143394 0.398559,0.143394 0.13967,0 0.321981,-0.06219 0.539535,-0.188552 0.220165,-0.12755 0.419009,-0.288769 0.601319,-0.484451 l 0,-6.847683 1.937538,0 0,9.015237 8.7e-4,0 z m 8.118685,-2.108929 c 0,0.636561 -0.151417,1.125766 -0.455558,1.467615 -0.301965,0.341057 -0.743165,0.756981 -1.316638,0.756981 -0.38159,0 -1.263119,-0.06377 -1.558122,-0.196079 -0.296309,-0.130322 -0.575649,-0.331946 -0.828447,-0.610416 l 0,0.690432 -1.959292,0 0,-12.466608 1.959292,0 0,4.183 c 0.262371,-0.272529 0.539535,-0.482867 0.829752,-0.625073 0.296309,-0.144979 1.137373,-0.214696 1.438468,-0.214696 0.613938,0 1.082114,-0.05783 1.404965,0.326797 0.32459,0.38463 0.485145,0.947513 0.485145,1.68548 l 0,5.002567 4.35e-4,0 z m 7.047449,-2.330359 -3.706687,0 0,1.698552 c 0,0.474152 0.06179,0.803326 0.188837,0.987521 0.129662,0.18459 0.348087,0.274113 0.657013,0.274113 0.321981,0 0.546061,-0.07803 0.674418,-0.23371 0.125747,-0.156862 0.192753,-0.497523 0.192753,-1.02832 l 0,-0.410378 1.994101,0 0,0.462665 c 0,0.923746 -0.24105,1.62012 -0.730981,2.089916 -0.482971,0.464249 -1.208296,0.696374 -2.174672,0.696374 -0.868476,0 -1.552901,-0.246385 -2.050665,-0.74272 -0.496024,-0.491582 -0.748821,-1.174884 -0.748821,-2.04357 l 0,-4.049509 c 0,-0.779163 0.274988,-1.420081 0.82453,-1.911662 0.548671,-0.491582 1.251806,-0.736779 2.121153,-0.736779 0.887621,0 1.569435,0.227768 2.045879,0.683303 0.476008,0.456723 0.714013,1.111109 0.714013,1.965534 l 0,2.29867 -8.71e-4,0 z M 40.989763,37.17772 c -0.309797,0 -0.528657,0.0812 -0.663975,0.249554 -0.136189,0.157654 -0.20015,0.429391 -0.20015,0.807683 l 0,0.91107 1.713021,0 0,-0.91107 c 0,-0.378292 -0.06918,-0.650029 -0.204501,-0.807683 -0.131402,-0.16835 -0.349827,-0.249554 -0.644395,-0.249554 z m -7.55261,0.118043 c -0.137929,0 -0.276294,0.02733 -0.411177,0.08714 -0.134884,0.05783 -0.267592,0.152506 -0.399429,0.275698 l 0,5.616153 c 0.155768,0.144979 0.310232,0.256684 0.459474,0.320856 0.149677,0.06219 0.30327,0.09705 0.467306,0.09705 0.23844,0 0.955498,-0.06377 1.067321,-0.192909 0.110082,-0.12755 0.167516,-0.331946 0.167516,-0.62032 l 0,-4.656757 c 0,-0.305802 -0.06614,-0.53555 -0.20363,-0.693205 -0.140975,-0.155278 -0.886751,-0.233709 -1.147381,-0.233709 z m 2.433608,-10.688947 c 0.394642,0 0.801026,-0.113577 1.219572,-0.332439 0.421901,-0.221765 0.825769,-0.546328 1.209926,-0.969959 l 0,1.150271 2.104474,0 0,-10.390996 -2.104474,0 0,7.888171 c -0.194595,0.225909 -0.411836,0.411196 -0.646692,0.558762 -0.237372,0.145909 -0.433644,0.218034 -0.587978,0.218034 -0.197111,0 -0.341379,-0.05472 -0.426934,-0.166634 -0.08807,-0.109431 -0.1363,-0.286843 -0.1363,-0.53099 l 0,-7.967343 -2.099861,0 0,8.684864 c 0,0.619281 0.124138,1.082291 0.36822,1.389031 0.247438,0.311298 0.611044,0.469228 1.100047,0.469228 z m -6.189284,0.111089 c 0.955359,0 1.70522,-0.253682 2.252517,-0.758972 0.542684,-0.508607 0.814865,-1.202086 0.814865,-2.09163 l 0,-5.369179 c 0,-0.790475 -0.278472,-1.442088 -0.830802,-1.944063 -0.558201,-0.500731 -1.270736,-0.752754 -2.141379,-0.752754 -0.95536,0 -1.717802,0.238345 -2.283133,0.715034 -0.565331,0.476689 -0.847996,1.115452 -0.847996,1.923337 l 0,5.386588 c 0,0.883741 0.275955,1.583023 0.827027,2.106967 0.551911,0.521871 1.288351,0.784672 2.208901,0.784672 z m -0.872321,-8.357813 c 0,-0.226324 0.08052,-0.408295 0.23905,-0.550887 0.162302,-0.139691 0.369897,-0.208085 0.626141,-0.208085 0.278892,0 0.503682,0.06839 0.67521,0.208085 0.17069,0.142592 0.256245,0.324563 0.256245,0.550887 l 0,5.66141 c 0,0.277723 -0.0843,0.497829 -0.25289,0.657417 -0.168173,0.159587 -0.393802,0.23793 -0.678984,0.23793 -0.277633,0 -0.492358,-0.07586 -0.64124,-0.235029 -0.148881,-0.156271 -0.223951,-0.374719 -0.223951,-0.660318 l 0,-5.66141 4.19e-4,0 z m -7.457924,8.095012 2.367429,0 0,-6.67282 2.755359,-8.243822 -2.406012,0 -1.465331,5.631565 -0.148881,0 -1.537466,-5.631565 -2.385043,0 2.819526,8.506208 0,6.410434 4.19e-4,0 z"
         id="path21" /></g></g></svg>